<svg width="12" height="20" viewBox="0 0 12 20" fill="none" xmlns="http://www.w3.org/2000/svg">
<path fill-rule="evenodd" clip-rule="evenodd" d="M4.12129 9.94844L10.1435 3.92627C10.1565 3.91415 10.1693 3.90177 10.182 3.88911L10.8891 3.182C11.4748 2.59621 11.4748 1.64646 10.8891 1.06068C10.3033 0.474892 9.35352 0.474892 8.76774 1.06068L8.43997 1.38844L8.43931 1.38778L1.64642 8.18067C0.670108 9.15698 0.670106 10.7399 1.64642 11.7162L8.06065 18.1304L8.43931 18.5091L8.76776 18.8375C9.35354 19.4233 10.3033 19.4233 10.8891 18.8375C11.4749 18.2517 11.4749 17.302 10.8891 16.7162L10.5606 16.3878L10.182 16.0091C10.1806 16.0077 10.1792 16.0064 10.1779 16.005L4.12129 9.94844Z" fill="#2675EC"/>
</svg>
