<svg width="16" height="17" viewBox="0 0 16 17" fill="none" xmlns="http://www.w3.org/2000/svg">
<mask id="path-1-inside-1" fill="white">
<path fill-rule="evenodd" clip-rule="evenodd" d="M7.93757 0C7.15592 0 6.52227 0.633653 6.52227 1.4153C6.52227 1.49215 6.52839 1.56756 6.54018 1.64108C4.86732 2.21089 3.664 3.79552 3.664 5.6612C3.664 5.89025 3.68214 6.11506 3.71705 6.33428C3.81471 6.94743 3.80156 7.595 3.49112 8.13269L0.270933 13.7102C-0.498868 15.0436 0.463384 16.7102 2.00299 16.7102H13.8687C15.4083 16.7102 16.3705 15.0436 15.6007 13.7102L12.3417 8.06545C12.036 7.53596 12.0185 6.89921 12.1089 6.29454C12.1398 6.08792 12.1558 5.87643 12.1558 5.6612C12.1558 3.81501 10.9775 2.24403 9.33192 1.65927C9.34569 1.58001 9.35287 1.4985 9.35287 1.4153C9.35287 0.633653 8.71922 0 7.93757 0Z"/>
</mask>
<path fill-rule="evenodd" clip-rule="evenodd" d="M7.93757 0C7.15592 0 6.52227 0.633653 6.52227 1.4153C6.52227 1.49215 6.52839 1.56756 6.54018 1.64108C4.86732 2.21089 3.664 3.79552 3.664 5.6612C3.664 5.89025 3.68214 6.11506 3.71705 6.33428C3.81471 6.94743 3.80156 7.595 3.49112 8.13269L0.270933 13.7102C-0.498868 15.0436 0.463384 16.7102 2.00299 16.7102H13.8687C15.4083 16.7102 16.3705 15.0436 15.6007 13.7102L12.3417 8.06545C12.036 7.53596 12.0185 6.89921 12.1089 6.29454C12.1398 6.08792 12.1558 5.87643 12.1558 5.6612C12.1558 3.81501 10.9775 2.24403 9.33192 1.65927C9.34569 1.58001 9.35287 1.4985 9.35287 1.4153C9.35287 0.633653 8.71922 0 7.93757 0Z" fill="#7E98DF"/>
<path d="M6.54018 1.64108L7.18504 3.53427L8.78201 2.9903L8.51496 1.32449L6.54018 1.64108ZM3.71705 6.33428L1.74195 6.64886L1.74195 6.64886L3.71705 6.33428ZM3.49112 8.13269L5.22317 9.13269L3.49112 8.13269ZM0.270933 13.7102L2.00298 14.7102L0.270933 13.7102ZM15.6007 13.7102L17.3328 12.7102V12.7102L15.6007 13.7102ZM12.3417 8.06545L10.6097 9.06545L12.3417 8.06545ZM12.1089 6.29454L14.0869 6.59036L14.0869 6.59035L12.1089 6.29454ZM9.33192 1.65927L7.36145 1.31689L7.07265 2.97896L8.66225 3.54382L9.33192 1.65927ZM8.52227 1.4153C8.52227 1.73822 8.26049 2 7.93757 2V-2C6.05135 -2 4.52227 -0.470916 4.52227 1.4153H8.52227ZM8.51496 1.32449C8.51989 1.35527 8.52227 1.38572 8.52227 1.4153H4.52227C4.52227 1.59858 4.53688 1.77985 4.56539 1.95767L8.51496 1.32449ZM5.89531 -0.252107C3.43689 0.585288 1.664 2.91361 1.664 5.6612H5.664C5.664 4.67743 6.29775 3.8365 7.18504 3.53427L5.89531 -0.252107ZM1.664 5.6612C1.664 5.99599 1.69053 6.32598 1.74195 6.64886L5.69216 6.0197C5.67375 5.90413 5.664 5.78451 5.664 5.6612H1.664ZM1.74195 6.64886C1.77257 6.84109 1.77532 6.97811 1.76661 7.06722C1.75844 7.1508 1.74366 7.15938 1.75907 7.13269L5.22317 9.13269C5.86914 8.01385 5.81946 6.81893 5.69216 6.0197L1.74195 6.64886ZM1.75907 7.13269L-1.46112 12.7102L2.00298 14.7102L5.22317 9.13269L1.75907 7.13269ZM-1.46112 12.7102C-3.00072 15.3769 -1.07621 18.7102 2.00299 18.7102V14.7102L2.00298 14.7102L-1.46112 12.7102ZM2.00299 18.7102H13.8687V14.7102H2.00299V18.7102ZM13.8687 18.7102C16.9479 18.7102 18.8724 15.3769 17.3328 12.7102L13.8687 14.7102L13.8687 14.7102V18.7102ZM17.3328 12.7102L14.0738 7.06545L10.6097 9.06545L13.8687 14.7102L17.3328 12.7102ZM14.0738 7.06545C14.089 7.09177 14.0746 7.0833 14.066 7.00135C14.057 6.91407 14.0586 6.77968 14.0869 6.59036L10.1309 5.99871C10.0128 6.78824 9.97361 7.96377 10.6097 9.06545L14.0738 7.06545ZM14.0869 6.59035C14.1324 6.28614 14.1558 5.97577 14.1558 5.6612H10.1558C10.1558 5.77708 10.1472 5.88969 10.1309 5.99872L14.0869 6.59035ZM14.1558 5.6612C14.1558 2.94225 12.4196 0.633954 10.0016 -0.225283L8.66225 3.54382C9.53544 3.85411 10.1558 4.68777 10.1558 5.6612H14.1558ZM7.35287 1.4153C7.35287 1.38326 7.35565 1.35023 7.36145 1.31689L11.3024 2.00165C11.3357 1.8098 11.3529 1.61374 11.3529 1.4153H7.35287ZM7.93757 2C7.61465 2 7.35287 1.73822 7.35287 1.4153H11.3529C11.3529 -0.470917 9.82379 -2 7.93757 -2V2Z" fill="#7E98DF" mask="url(#path-1-inside-1)"/>
</svg>
