<svg width="37" height="37" viewBox="0 0 37 37" fill="none" xmlns="http://www.w3.org/2000/svg">
<path d="M5.29716 22.7362L9.86815 22.7362C11.1283 22.7362 12.1536 21.7109 12.1536 20.4507L12.1537 18.373C12.1537 17.4183 12.9306 16.6417 13.8848 16.6415L22.8943 16.6454C23.8512 16.6454 24.6257 17.4197 24.6257 18.3768C24.6257 18.7115 24.6257 19.6724 24.6257 20.4545C24.6257 21.7092 25.6391 22.74 26.9124 22.74L31.475 22.7328C32.7352 22.7328 33.7605 21.7075 33.7605 20.4506C33.7646 19.5142 33.7659 19.2122 33.7677 18.7923C33.7677 14.2478 30.0705 10.5507 25.5263 10.5507L11.2533 10.5469C6.69817 10.5469 3.0117 14.233 3.01173 18.7885L3.0117 20.4507C3.0117 21.711 4.03694 22.7362 5.29716 22.7362ZM32.2368 20.4473C32.2368 20.8674 31.8952 21.2091 31.4738 21.2092L26.9112 21.2164C26.4902 21.2164 26.1494 20.8756 26.1494 20.4545L26.1494 19.6927L32.2401 19.6927L32.2368 20.4473ZM11.2531 12.0706L25.5261 12.0744C29.0421 12.0744 31.8991 14.7382 32.2151 18.169L26.1421 18.169C26.0355 16.4667 24.624 15.1217 22.8946 15.1217L13.8854 15.1179C13.8853 15.1179 13.8852 15.1179 13.8851 15.1179C12.1576 15.1179 10.744 16.4606 10.6373 18.1652H4.56417C4.87689 14.743 7.71293 12.0706 11.2531 12.0706ZM4.5353 20.4508V19.6889L10.63 19.6889L10.63 20.4507C10.63 20.8708 10.2883 21.2126 9.86815 21.2126H5.29716C4.87704 21.2126 4.53527 20.8708 4.5353 20.4508Z" fill="#7E98DF"/>
</svg>
