<?xml version="1.0" ?><svg style="enable-background:new 0 0 16 16;" version="1.1" viewBox="0 0 16 16" xml:space="preserve" xmlns="http://www.w3.org/2000/svg" xmlns:xlink="http://www.w3.org/1999/xlink"><g id="Guide"/><g id="Layer_2"><g><path d="M7.95,11c-0.4,0.01-0.77,0.18-1.04,0.48c-0.27,0.29-0.42,0.67-0.4,1.07c0.01,0.4,0.18,0.77,0.48,1.05    C7.26,13.86,7.62,14,8,14c0.02,0,0.04,0,0.05,0c0.4-0.01,0.77-0.18,1.04-0.48c0.27-0.29,0.42-0.67,0.4-1.08s-0.18-0.77-0.48-1.04    C8.73,11.13,8.35,10.98,7.95,11z M8.5,12.48c0,0.13-0.04,0.26-0.13,0.36C8.27,12.94,8.15,13,8.02,13c-0.13,0-0.26-0.04-0.36-0.13    c-0.1-0.09-0.15-0.21-0.16-0.35c0-0.13,0.04-0.26,0.13-0.36S7.85,12,7.98,12c0.01,0,0.01,0,0.02,0c0.13,0,0.25,0.05,0.34,0.13    C8.44,12.23,8.5,12.35,8.5,12.48C8.5,12.48,8.5,12.48,8.5,12.48z"/><path d="M8,6.5C7.17,6.5,6.5,7.17,6.5,8S7.17,9.5,8,9.5S9.5,8.83,9.5,8S8.83,6.5,8,6.5z M8,8.5C7.72,8.5,7.5,8.28,7.5,8    S7.72,7.5,8,7.5S8.5,7.72,8.5,8S8.28,8.5,8,8.5z"/><path d="M8,5c0.83,0,1.5-0.67,1.5-1.5S8.83,2,8,2S6.5,2.67,6.5,3.5S7.17,5,8,5z M8,3c0.28,0,0.5,0.22,0.5,0.5S8.28,4,8,4    S7.5,3.78,7.5,3.5S7.72,3,8,3z"/></g></g></svg>