<svg width="33" height="24" viewBox="0 0 33 24" fill="none" xmlns="http://www.w3.org/2000/svg">
<path fill-rule="evenodd" clip-rule="evenodd" d="M26 6.5C26 8.98528 23.9853 11 21.5 11C19.0147 11 17 8.98528 17 6.5C17 4.01472 19.0147 2 21.5 2C23.9853 2 26 4.01472 26 6.5ZM24.3333 12.3516C26.5036 11.2989 28 9.07417 28 6.5C28 2.91015 25.0899 0 21.5 0C17.9101 0 15 2.91015 15 6.5C15 9.07417 16.4964 11.2989 18.6667 12.3516C14.3179 13.4535 10.9566 17.0331 10.1733 21.5C10.0594 22.1495 10 22.8178 10 23.5H12H31H33C33 22.8178 32.9406 22.1495 32.8267 21.5C32.0434 17.0331 28.6821 13.4535 24.3333 12.3516ZM12.2109 21.5C13.1293 17.2137 16.9394 14 21.5 14C26.0606 14 29.8707 17.2137 30.7891 21.5H12.2109Z" fill="#7E98DF"/>
<rect x="4" y="7" width="2" height="10" rx="1" fill="#7E98DF"/>
<rect y="13" width="2" height="10" rx="1" transform="rotate(-90 0 13)" fill="#7E98DF"/>
</svg>
